<svg width="512" height="512" viewBox="0 0 512 512" xmlns="http://www.w3.org/2000/svg">
  <defs>
    <linearGradient id="qisGradient" x1="0%" y1="0%" x2="100%" y2="100%">
      <stop offset="0%" style="stop-color:#003366;stop-opacity:1" />
      <stop offset="100%" style="stop-color:#001a33;stop-opacity:1" />
    </linearGradient>
  </defs>
  <rect width="512" height="512" rx="128" fill="url(#qisGradient)" />
  <path d="M256 120C180 120 120 180 120 256C120 332 180 392 256 392C285 392 312 383 334 368L400 434L434 400L368 334C383 312 392 285 392 256C392 180 332 120 256 120ZM256 342C208 342 170 304 170 256C170 208 208 170 256 170C304 170 342 208 342 256C342 304 304 342 256 342Z" fill="#FFD700" />
  <text x="256" y="295" font-family="Inter, system-ui, sans-serif" font-size="120" font-weight="800" fill="#FFD700" text-anchor="middle">QIS</text>
</svg>
